<mxfile host="Electron" modified="2024-04-29T09:27:10.422Z" agent="Mozilla/5.0 (Windows NT 10.0; Win64; x64) AppleWebKit/537.36 (KHTML, like Gecko) draw.io/24.1.0 Chrome/120.0.6099.109 Electron/28.1.0 Safari/537.36" etag="ZF3kdGQIMSUWTEn3eFHh" version="24.1.0" type="device">
  <diagram name="第 1 页" id="YRNvQdBV22zfUmtCXsC_">
    <mxGraphModel dx="1434" dy="836" grid="1" gridSize="10" guides="1" tooltips="1" connect="1" arrows="1" fold="1" page="1" pageScale="1" pageWidth="827" pageHeight="1169" math="0" shadow="0">
      <root>
        <mxCell id="0" />
        <mxCell id="1" parent="0" />
        <mxCell id="lIY-aEhcTRqQ6z-K19vD-43" value="" style="endArrow=none;dashed=1;html=1;rounded=0;entryX=0.5;entryY=1;entryDx=0;entryDy=0;labelBackgroundColor=none;strokeColor=#000000;fontColor=default;" parent="1" target="lIY-aEhcTRqQ6z-K19vD-36" edge="1">
          <mxGeometry width="50" height="50" relative="1" as="geometry">
            <mxPoint x="629" y="188" as="sourcePoint" />
            <mxPoint x="710" y="390" as="targetPoint" />
          </mxGeometry>
        </mxCell>
        <mxCell id="lIY-aEhcTRqQ6z-K19vD-1" value="&lt;font style=&quot;font-size: 16px;&quot;&gt;RefreshTask&amp;nbsp;&lt;/font&gt;" style="swimlane;fontStyle=1;align=center;verticalAlign=top;childLayout=stackLayout;horizontal=1;startSize=25;horizontalStack=0;resizeParent=1;resizeParentMax=0;resizeLast=0;collapsible=1;marginBottom=0;whiteSpace=wrap;html=1;labelBackgroundColor=none;fillColor=#F5AB50;strokeColor=#000000;fontColor=#1A1A1A;" parent="1" vertex="1">
          <mxGeometry x="270" y="380" width="240" height="60" as="geometry" />
        </mxCell>
        <mxCell id="lIY-aEhcTRqQ6z-K19vD-4" value="+ executeRefreshUnlocked(view): void&amp;nbsp;" style="text;strokeColor=none;fillColor=none;align=left;verticalAlign=top;spacingLeft=4;spacingRight=4;overflow=hidden;rotatable=0;points=[[0,0.5],[1,0.5]];portConstraint=eastwest;whiteSpace=wrap;html=1;labelBackgroundColor=none;fontColor=#1A1A1A;" parent="lIY-aEhcTRqQ6z-K19vD-1" vertex="1">
          <mxGeometry y="25" width="240" height="35" as="geometry" />
        </mxCell>
        <mxCell id="lIY-aEhcTRqQ6z-K19vD-5" value="&lt;font style=&quot;font-size: 20px;&quot;&gt;Materialized View&lt;/font&gt;" style="rounded=1;whiteSpace=wrap;html=1;fillColor=#ffcd28;strokeColor=#000000;labelBackgroundColor=none;gradientColor=#ffa500;" parent="1" vertex="1">
          <mxGeometry x="10" y="10" width="170" height="60" as="geometry" />
        </mxCell>
        <mxCell id="lIY-aEhcTRqQ6z-K19vD-6" value="&lt;font style=&quot;font-size: 16px;&quot;&gt;InterpreterInsertQuery&lt;/font&gt;" style="swimlane;fontStyle=1;align=center;verticalAlign=top;childLayout=stackLayout;horizontal=1;startSize=26;horizontalStack=0;resizeParent=1;resizeParentMax=0;resizeLast=0;collapsible=1;marginBottom=0;whiteSpace=wrap;html=1;labelBackgroundColor=none;fillColor=#F5AB50;strokeColor=#000000;fontColor=#1A1A1A;" parent="1" vertex="1">
          <mxGeometry x="836" y="191" width="182" height="58" as="geometry" />
        </mxCell>
        <mxCell id="lIY-aEhcTRqQ6z-K19vD-9" value="+ buildSink(...): Chain" style="text;strokeColor=none;fillColor=none;align=left;verticalAlign=top;spacingLeft=4;spacingRight=4;overflow=hidden;rotatable=0;points=[[0,0.5],[1,0.5]];portConstraint=eastwest;whiteSpace=wrap;html=1;labelBackgroundColor=none;fontColor=#1A1A1A;" parent="lIY-aEhcTRqQ6z-K19vD-6" vertex="1">
          <mxGeometry y="26" width="182" height="32" as="geometry" />
        </mxCell>
        <mxCell id="lIY-aEhcTRqQ6z-K19vD-21" value="&lt;font style=&quot;font-size: 16px;&quot;&gt;InterpreterInsertQuery&lt;/font&gt;" style="swimlane;fontStyle=1;align=center;verticalAlign=top;childLayout=stackLayout;horizontal=1;startSize=26;horizontalStack=0;resizeParent=1;resizeParentMax=0;resizeLast=0;collapsible=1;marginBottom=0;whiteSpace=wrap;html=1;labelBackgroundColor=none;fillColor=#F5AB50;strokeColor=#000000;fontColor=#1A1A1A;" parent="1" vertex="1">
          <mxGeometry x="540" y="190" width="180" height="58" as="geometry" />
        </mxCell>
        <mxCell id="lIY-aEhcTRqQ6z-K19vD-24" value="+ buildChain(...): Chain" style="text;strokeColor=none;fillColor=none;align=left;verticalAlign=top;spacingLeft=4;spacingRight=4;overflow=hidden;rotatable=0;points=[[0,0.5],[1,0.5]];portConstraint=eastwest;whiteSpace=wrap;html=1;labelBackgroundColor=none;fontColor=#1A1A1A;" parent="lIY-aEhcTRqQ6z-K19vD-21" vertex="1">
          <mxGeometry y="26" width="180" height="32" as="geometry" />
        </mxCell>
        <mxCell id="lIY-aEhcTRqQ6z-K19vD-41" value="" style="edgeStyle=orthogonalEdgeStyle;rounded=0;orthogonalLoop=1;jettySize=auto;html=1;labelBackgroundColor=none;strokeColor=#000000;fontColor=default;" parent="1" source="lIY-aEhcTRqQ6z-K19vD-31" target="lIY-aEhcTRqQ6z-K19vD-32" edge="1">
          <mxGeometry relative="1" as="geometry" />
        </mxCell>
        <mxCell id="lIY-aEhcTRqQ6z-K19vD-31" value="&lt;span style=&quot;font-size: 14px;&quot;&gt;&lt;b&gt;buildPushingToViewsChain&lt;/b&gt;&lt;/span&gt;" style="html=1;whiteSpace=wrap;fillColor=none;labelBackgroundColor=none;strokeColor=#000000;fontColor=#1A1A1A;" parent="1" vertex="1">
          <mxGeometry x="120" y="90" width="190" height="40" as="geometry" />
        </mxCell>
        <mxCell id="lIY-aEhcTRqQ6z-K19vD-38" value="" style="edgeStyle=orthogonalEdgeStyle;rounded=0;orthogonalLoop=1;jettySize=auto;html=1;labelBackgroundColor=none;strokeColor=#000000;fontColor=default;" parent="1" source="lIY-aEhcTRqQ6z-K19vD-32" target="lIY-aEhcTRqQ6z-K19vD-36" edge="1">
          <mxGeometry relative="1" as="geometry" />
        </mxCell>
        <mxCell id="lIY-aEhcTRqQ6z-K19vD-32" value="&lt;span style=&quot;font-size: 14px;&quot;&gt;&lt;b&gt;generateViewChain&lt;/b&gt;&lt;/span&gt;" style="html=1;whiteSpace=wrap;fillColor=none;labelBackgroundColor=none;strokeColor=#000000;fontColor=#1A1A1A;" parent="1" vertex="1">
          <mxGeometry x="370" y="90" width="146" height="40" as="geometry" />
        </mxCell>
        <mxCell id="lIY-aEhcTRqQ6z-K19vD-40" value="" style="edgeStyle=orthogonalEdgeStyle;rounded=0;orthogonalLoop=1;jettySize=auto;html=1;labelBackgroundColor=none;strokeColor=#000000;fontColor=default;" parent="1" source="lIY-aEhcTRqQ6z-K19vD-36" target="lIY-aEhcTRqQ6z-K19vD-37" edge="1">
          <mxGeometry relative="1" as="geometry" />
        </mxCell>
        <mxCell id="lIY-aEhcTRqQ6z-K19vD-36" value="&lt;span style=&quot;text-align: left;&quot;&gt;&lt;b&gt;&lt;font style=&quot;font-size: 14px;&quot;&gt;buildChain&lt;/font&gt;&lt;/b&gt;&lt;/span&gt;" style="html=1;whiteSpace=wrap;fillColor=none;labelBackgroundColor=none;strokeColor=#000000;fontColor=#1A1A1A;" parent="1" vertex="1">
          <mxGeometry x="578" y="90" width="102" height="40" as="geometry" />
        </mxCell>
        <mxCell id="lIY-aEhcTRqQ6z-K19vD-48" value="" style="edgeStyle=orthogonalEdgeStyle;rounded=0;orthogonalLoop=1;jettySize=auto;html=1;labelBackgroundColor=none;strokeColor=#FF0000;fontColor=default;" parent="1" source="lIY-aEhcTRqQ6z-K19vD-37" edge="1">
          <mxGeometry relative="1" as="geometry">
            <mxPoint x="1068" y="110" as="targetPoint" />
          </mxGeometry>
        </mxCell>
        <mxCell id="lIY-aEhcTRqQ6z-K19vD-50" style="edgeStyle=orthogonalEdgeStyle;rounded=0;orthogonalLoop=1;jettySize=auto;html=1;entryX=0.5;entryY=0;entryDx=0;entryDy=0;labelBackgroundColor=none;strokeColor=#000000;fontColor=default;dashed=1;" parent="1" target="lIY-aEhcTRqQ6z-K19vD-31" edge="1">
          <mxGeometry relative="1" as="geometry">
            <mxPoint x="1010" y="110" as="sourcePoint" />
            <mxPoint x="405" y="90" as="targetPoint" />
            <Array as="points">
              <mxPoint x="1010" y="110" />
              <mxPoint x="1010" y="40" />
              <mxPoint x="215" y="40" />
            </Array>
          </mxGeometry>
        </mxCell>
        <mxCell id="lIY-aEhcTRqQ6z-K19vD-37" value="&lt;span style=&quot;text-align: left;&quot;&gt;&lt;b&gt;&lt;font style=&quot;font-size: 14px;&quot;&gt;buildSink&lt;/font&gt;&lt;/b&gt;&lt;/span&gt;" style="html=1;whiteSpace=wrap;fillColor=none;labelBackgroundColor=none;strokeColor=#000000;fontColor=#1A1A1A;" parent="1" vertex="1">
          <mxGeometry x="858" y="90" width="130" height="40" as="geometry" />
        </mxCell>
        <mxCell id="lIY-aEhcTRqQ6z-K19vD-44" value="" style="endArrow=none;dashed=1;html=1;rounded=0;entryX=0.5;entryY=1;entryDx=0;entryDy=0;exitX=0.434;exitY=-0.009;exitDx=0;exitDy=0;exitPerimeter=0;labelBackgroundColor=none;strokeColor=#000000;fontColor=default;" parent="1" source="lIY-aEhcTRqQ6z-K19vD-6" edge="1">
          <mxGeometry width="50" height="50" relative="1" as="geometry">
            <mxPoint x="915" y="160" as="sourcePoint" />
            <mxPoint x="915" y="130" as="targetPoint" />
          </mxGeometry>
        </mxCell>
        <mxCell id="lIY-aEhcTRqQ6z-K19vD-49" value="&lt;b&gt;&lt;font style=&quot;font-size: 14px;&quot;&gt;Kafka::write()&lt;/font&gt;&lt;/b&gt;" style="html=1;whiteSpace=wrap;fillColor=none;labelBackgroundColor=none;strokeColor=#000000;fontColor=#1A1A1A;" parent="1" vertex="1">
          <mxGeometry x="1068" y="90" width="130" height="40" as="geometry" />
        </mxCell>
        <mxCell id="lIY-aEhcTRqQ6z-K19vD-51" value="写入 Kafka 持久化保存" style="shape=note2;boundedLbl=1;whiteSpace=wrap;html=1;size=13;verticalAlign=top;align=center;fillColor=none;labelBackgroundColor=none;strokeColor=#000000;fontColor=#1A1A1A;" parent="1" vertex="1">
          <mxGeometry x="1068" y="191" width="130" height="49" as="geometry" />
        </mxCell>
        <mxCell id="lIY-aEhcTRqQ6z-K19vD-53" value="" style="endArrow=none;dashed=1;html=1;rounded=0;entryX=0.5;entryY=1;entryDx=0;entryDy=0;exitX=0.434;exitY=-0.009;exitDx=0;exitDy=0;exitPerimeter=0;labelBackgroundColor=none;strokeColor=#000000;fontColor=default;" parent="1" edge="1">
          <mxGeometry width="50" height="50" relative="1" as="geometry">
            <mxPoint x="1128" y="190" as="sourcePoint" />
            <mxPoint x="1128" y="130" as="targetPoint" />
          </mxGeometry>
        </mxCell>
        <mxCell id="lIY-aEhcTRqQ6z-K19vD-55" value="StorageKafka::streamToViews()" style="text;whiteSpace=wrap;labelBackgroundColor=none;fontColor=#1A1A1A;" parent="1" vertex="1">
          <mxGeometry x="130" y="690" width="200" height="40" as="geometry" />
        </mxCell>
        <mxCell id="lIY-aEhcTRqQ6z-K19vD-63" style="edgeStyle=orthogonalEdgeStyle;rounded=0;orthogonalLoop=1;jettySize=auto;html=1;entryX=0;entryY=0.75;entryDx=0;entryDy=0;labelBackgroundColor=none;strokeColor=#FF0000;fontColor=default;curved=1;" parent="1" source="lIY-aEhcTRqQ6z-K19vD-59" target="lIY-aEhcTRqQ6z-K19vD-37" edge="1">
          <mxGeometry relative="1" as="geometry" />
        </mxCell>
        <mxCell id="lIY-aEhcTRqQ6z-K19vD-59" value="&lt;span style=&quot;text-align: left;&quot;&gt;&lt;font style=&quot;font-size: 14px;&quot;&gt;execute&lt;/font&gt;&lt;/span&gt;" style="html=1;whiteSpace=wrap;fillColor=none;fontStyle=1;labelBackgroundColor=none;strokeColor=#000000;fontColor=#1A1A1A;" parent="1" vertex="1">
          <mxGeometry x="590" y="290" width="70" height="40" as="geometry" />
        </mxCell>
        <mxCell id="lIY-aEhcTRqQ6z-K19vD-60" value="&lt;font style=&quot;font-size: 16px;&quot;&gt;InterpreterInsertQuery&lt;/font&gt;" style="swimlane;fontStyle=1;align=center;verticalAlign=top;childLayout=stackLayout;horizontal=1;startSize=26;horizontalStack=0;resizeParent=1;resizeParentMax=0;resizeLast=0;collapsible=1;marginBottom=0;whiteSpace=wrap;html=1;labelBackgroundColor=none;fillColor=#F5AB50;strokeColor=#000000;fontColor=#1A1A1A;" parent="1" vertex="1">
          <mxGeometry x="549" y="380" width="181" height="58" as="geometry" />
        </mxCell>
        <mxCell id="lIY-aEhcTRqQ6z-K19vD-61" value="+ execute(): BlockIO&amp;nbsp;" style="text;strokeColor=none;fillColor=none;align=left;verticalAlign=top;spacingLeft=4;spacingRight=4;overflow=hidden;rotatable=0;points=[[0,0.5],[1,0.5]];portConstraint=eastwest;whiteSpace=wrap;html=1;labelBackgroundColor=none;fontColor=#1A1A1A;" parent="lIY-aEhcTRqQ6z-K19vD-60" vertex="1">
          <mxGeometry y="26" width="181" height="32" as="geometry" />
        </mxCell>
        <mxCell id="lIY-aEhcTRqQ6z-K19vD-65" value="" style="endArrow=none;dashed=1;html=1;rounded=0;labelBackgroundColor=none;strokeColor=#000000;fontColor=default;" parent="1" edge="1">
          <mxGeometry width="50" height="50" relative="1" as="geometry">
            <mxPoint x="629" y="380" as="sourcePoint" />
            <mxPoint x="629" y="330" as="targetPoint" />
          </mxGeometry>
        </mxCell>
        <mxCell id="ZdIc9tsvfvS6NTBBQTpb-6" value="" style="edgeStyle=orthogonalEdgeStyle;rounded=0;orthogonalLoop=1;jettySize=auto;html=1;strokeColor=#FF0000;" edge="1" parent="1" source="ZdIc9tsvfvS6NTBBQTpb-3" target="lIY-aEhcTRqQ6z-K19vD-59">
          <mxGeometry relative="1" as="geometry" />
        </mxCell>
        <mxCell id="ZdIc9tsvfvS6NTBBQTpb-3" value="&lt;div style=&quot;text-align: left;&quot;&gt;&lt;span style=&quot;background-color: initial; font-size: 14px;&quot;&gt;executeRefreshUnlocked&lt;/span&gt;&lt;/div&gt;" style="html=1;whiteSpace=wrap;fillColor=none;fontStyle=1;labelBackgroundColor=none;strokeColor=#000000;fontColor=#1A1A1A;" vertex="1" parent="1">
          <mxGeometry x="300" y="290" width="180" height="40" as="geometry" />
        </mxCell>
        <mxCell id="ZdIc9tsvfvS6NTBBQTpb-5" value="" style="endArrow=none;dashed=1;html=1;rounded=0;labelBackgroundColor=none;strokeColor=#000000;fontColor=default;" edge="1" parent="1">
          <mxGeometry width="50" height="50" relative="1" as="geometry">
            <mxPoint x="380" y="380" as="sourcePoint" />
            <mxPoint x="380" y="330" as="targetPoint" />
          </mxGeometry>
        </mxCell>
      </root>
    </mxGraphModel>
  </diagram>
</mxfile>
